<svg xmlns="http://www.w3.org/2000/svg" viewBox="0 0 80.53 22"><defs><style>.cls-1{font-size:10.8px;font-family:Poppins-ExtraLight, Poppins;font-weight:200;}.cls-1,.cls-2{fill:#fff;}</style></defs><g id="Calque_2" data-name="Calque 2"><g id="Calque_1-2" data-name="Calque 1"><text class="cls-1" transform="translate(19.25 16.02)">Appavenue</text></g><g id="Calque_2-2" data-name="Calque 2"><path class="cls-2" d="M12.9,4.34,11.59,6a1,1,0,0,0-.2.83l.59,3A1,1,0,0,1,11,11H8a1,1,0,0,0-.78.37L.31,19.9a1,1,0,0,0-.2.44L0,20.78A1,1,0,0,0,1,22H2.59a1,1,0,0,0,1-.81l1.15-5.72a1,1,0,0,1,1-.81h6.41a1,1,0,0,1,1,.81l1.13,5.72a1,1,0,0,0,1,.81h1.61a1,1,0,0,0,1-1.2l-3.15-16A1,1,0,0,0,12.9,4.34Z"/><path class="cls-2" d="M6.57,6.16l.34-1.69a1,1,0,0,1,1-.81h.37a1,1,0,0,0,.78-.37l1.33-1.65A1,1,0,0,0,9.6,0H5A1,1,0,0,0,4,.81l-1.5,7.6a1,1,0,0,0,1.77.83L6.37,6.6A1,1,0,0,0,6.57,6.16Z"/></g></g></svg>